<?xml version="1.0" encoding="utf-8"?>
<!-- Generator: Adobe Illustrator 27.9.0, SVG Export Plug-In . SVG Version: 6.00 Build 0)  -->
<svg version="1.1" id="Layer_1" xmlns="http://www.w3.org/2000/svg" xmlns:xlink="http://www.w3.org/1999/xlink" x="0px" y="0px"
	 viewBox="0 0 64 64" style="enable-background:new 0 0 64 64;" xml:space="preserve">
<style type="text/css">
	.st0{fill:none;stroke:#FFFFFF;stroke-width:1.8442;stroke-linejoin:round;stroke-miterlimit:10;}
</style>
<path class="st0" d="M55.32,4.2H8.68c-3.59,0-6.49,2.91-6.49,6.49v31.74c0,3.59,2.91,6.49,6.49,6.49h34.46l10.18,11.09V48.92h2
	c3.59,0,6.49-2.91,6.49-6.49V10.69C61.81,7.11,58.91,4.2,55.32,4.2z"/>
<polygon class="st0" points="37.05,21.69 37.05,11.96 27.32,11.96 27.32,21.69 17.59,21.69 17.59,31.43 27.32,31.43 27.32,41.16 
	37.05,41.16 37.05,31.43 46.78,31.43 46.78,21.69 "/>
</svg>
