<?xml version="1.0" encoding="UTF-8"?><svg id="Layer_1" xmlns="http://www.w3.org/2000/svg" width="60.72" height="62.67" viewBox="0 0 60.72 62.67"><defs><style>.cls-1{fill:#007d81;}.cls-1,.cls-2{stroke-width:0px;}.cls-2{fill:#010101;opacity:.1;}</style></defs><path class="cls-2" d="m54.11,5.84H6.61c-3.65,0-6.61,2.96-6.61,6.61v32.32c0,3.65,2.96,6.61,6.61,6.61h35.1l10.37,11.29v-11.29h2.03c3.65,0,6.61-2.96,6.61-6.61V12.45c0-3.65-2.96-6.61-6.61-6.61Zm-8.7,27.73h-9.91v9.91h-9.91v-9.91h-9.91v-9.91h9.91v-9.91h9.91v9.91h9.91v9.91Z"/><path class="cls-1" d="m54.11,0H6.61C2.96,0,0,2.96,0,6.61v32.32c0,3.65,2.96,6.61,6.61,6.61h35.1l10.37,11.29v-11.29h2.03c3.65,0,6.61-2.96,6.61-6.61V6.61c0-3.65-2.96-6.61-6.61-6.61Zm-8.7,27.73h-9.91v9.91h-9.91v-9.91h-9.91v-9.91h9.91V7.9h9.91v9.91h9.91v9.91Z"/></svg>